<svg xmlns="http://www.w3.org/2000/svg" xmlns:xlink="http://www.w3.org/1999/xlink" id="processonSvg1000" viewBox="66.0 144.0 783.0 410.0" width="783.0" height="410.0"><defs id="ProcessOnDefs1001"/><g id="ProcessOnG1002"><path id="ProcessOnPath1003" d="M66.0 144.0H849.0V554.0H66.0V144.0Z" fill="#ffffff"/><g id="ProcessOnG1004"><g id="ProcessOnG1005" transform="matrix(1.0,0.0,0.0,1.0,393.0,164.0)" opacity="1.0"><path id="ProcessOnPath1006" d="M0.0 4.0Q0.0 0.0 4.0 0.0L111.0 0.0Q115.0 0.0 115.0 4.0L115.0 66.0Q115.0 70.0 111.0 70.0L4.0 70.0Q0.0 70.0 0.0 66.0Z" stroke="#ff8000" stroke-width="2.0" stroke-dasharray="none" opacity="1.0" fill="#ff8000"/><g id="ProcessOnG1007" transform="matrix(1.0,0.0,0.0,1.0,10.0,25.625)"><text id="ProcessOnText1008" fill="#333300" font-weight="normal" font-style="normal" text-decoration="blink" font-family="微软雅黑" text-anchor="middle" font-size="15" x="47.5" y="15.375">前端NGINX</text></g></g><g id="ProcessOnG1009" transform="matrix(1.0,0.0,0.0,1.0,86.0,380.0)" opacity="1.0"><path id="ProcessOnPath1010" d="M0.0 4.0Q0.0 0.0 4.0 0.0L111.0 0.0Q115.0 0.0 115.0 4.0L115.0 66.0Q115.0 70.0 111.0 70.0L4.0 70.0Q0.0 70.0 0.0 66.0Z" stroke="#99ccff" stroke-width="2.0" stroke-dasharray="none" opacity="1.0" fill="#99ccff"/><g id="ProcessOnG1011" transform="matrix(1.0,0.0,0.0,1.0,10.0,25.0)"><text id="ProcessOnText1012" fill="#323232" font-weight="normal" font-style="normal" text-decoration="blink" font-family="Arial,宋体" text-anchor="middle" font-size="16" x="47.5" y="16.4">NODE</text></g></g><g id="ProcessOnG1013" transform="matrix(1.0,0.0,0.0,1.0,288.0,380.0)" opacity="1.0"><path id="ProcessOnPath1014" d="M0.0 4.0Q0.0 0.0 4.0 0.0L111.0 0.0Q115.0 0.0 115.0 4.0L115.0 66.0Q115.0 70.0 111.0 70.0L4.0 70.0Q0.0 70.0 0.0 66.0Z" stroke="#99ccff" stroke-width="2.0" stroke-dasharray="none" opacity="1.0" fill="#99ccff"/><g id="ProcessOnG1015" transform="matrix(1.0,0.0,0.0,1.0,10.0,25.0)"><text id="ProcessOnText1016" fill="#323232" font-weight="normal" font-style="normal" text-decoration="blink" font-family="Arial,宋体" text-anchor="middle" font-size="16" x="47.5" y="16.4">NODE</text></g></g><g id="ProcessOnG1017" transform="matrix(1.0,0.0,0.0,1.0,714.0,380.0)" opacity="1.0"><path id="ProcessOnPath1018" d="M0.0 4.0Q0.0 0.0 4.0 0.0L111.0 0.0Q115.0 0.0 115.0 4.0L115.0 66.0Q115.0 70.0 111.0 70.0L4.0 70.0Q0.0 70.0 0.0 66.0Z" stroke="#99ccff" stroke-width="2.0" stroke-dasharray="none" opacity="1.0" fill="#99ccff"/><g id="ProcessOnG1019" transform="matrix(1.0,0.0,0.0,1.0,10.0,25.0)"><text id="ProcessOnText1020" fill="#323232" font-weight="normal" font-style="normal" text-decoration="blink" font-family="Arial,宋体" text-anchor="middle" font-size="16" x="47.5" y="16.4">NODE</text></g></g><g id="ProcessOnG1021"><path id="ProcessOnPath1022" d="M143.5 380.0L143.5 363.0L771.5 363.0L771.5 380.0" stroke="#000000" stroke-width="1.0" stroke-dasharray="none" fill="none"/></g><g id="ProcessOnG1023" transform="matrix(1.0,0.0,0.0,1.0,526.0,380.0)" opacity="1.0"><path id="ProcessOnPath1024" d="M0.0 4.0Q0.0 0.0 4.0 0.0L111.0 0.0Q115.0 0.0 115.0 4.0L115.0 66.0Q115.0 70.0 111.0 70.0L4.0 70.0Q0.0 70.0 0.0 66.0Z" stroke="#99ccff" stroke-width="2.0" stroke-dasharray="none" opacity="1.0" fill="#99ccff"/><g id="ProcessOnG1025" transform="matrix(1.0,0.0,0.0,1.0,10.0,25.0)"><text id="ProcessOnText1026" fill="#323232" font-weight="normal" font-style="normal" text-decoration="blink" font-family="Arial,宋体" text-anchor="middle" font-size="16" x="47.5" y="16.4">NODE</text></g></g><g id="ProcessOnG1027" transform="matrix(1.0,0.0,0.0,1.0,206.0,486.0)" opacity="1.0"><path id="ProcessOnPath1028" d="M0.0 4.0Q0.0 0.0 4.0 0.0L99.0 0.0Q103.0 0.0 103.0 4.0L103.0 44.0Q103.0 48.0 99.0 48.0L4.0 48.0Q0.0 48.0 0.0 44.0Z" stroke="#a1a1a1" stroke-width="2.0" stroke-dasharray="none" opacity="1.0" fill="#a1a1a1"/><g id="ProcessOnG1029" transform="matrix(1.0,0.0,0.0,1.0,10.0,15.875)"><text id="ProcessOnText1030" fill="#1a3300" font-weight="normal" font-style="normal" text-decoration="blink" font-family="Arial,宋体" text-anchor="middle" font-size="13" x="41.5" y="13.325">PROCESS 1</text></g></g><g id="ProcessOnG1031" transform="matrix(1.0,0.0,0.0,1.0,379.0,486.0)" opacity="1.0"><path id="ProcessOnPath1032" d="M0.0 4.0Q0.0 0.0 4.0 0.0L99.0 0.0Q103.0 0.0 103.0 4.0L103.0 44.0Q103.0 48.0 99.0 48.0L4.0 48.0Q0.0 48.0 0.0 44.0Z" stroke="#a1a1a1" stroke-width="2.0" stroke-dasharray="none" opacity="1.0" fill="#a1a1a1"/><g id="ProcessOnG1033" transform="matrix(1.0,0.0,0.0,1.0,10.0,15.875)"><text id="ProcessOnText1034" fill="#1a3300" font-weight="normal" font-style="normal" text-decoration="blink" font-family="Arial,宋体" text-anchor="middle" font-size="13" x="41.5" y="13.325">PROCESS 2</text></g></g><g id="ProcessOnG1035"><path id="ProcessOnPath1036" d="M345.5 450.0L345.5 468.0L430.5 468.0L430.5 486.0" stroke="#000000" stroke-width="1.0" stroke-dasharray="none" fill="none"/></g><g id="ProcessOnG1037"><path id="ProcessOnPath1038" d="M257.5 486.0L257.5 468.0L345.5 468.0L345.5 450.0" stroke="#000000" stroke-width="1.0" stroke-dasharray="none" fill="none"/></g><g id="ProcessOnG1039"><path id="ProcessOnPath1040" d="M450.5 234.0L450.5 298.5L450.5 298.5L450.5 363.0" stroke="#323232" stroke-width="2.0" stroke-dasharray="none" fill="none"/></g><g id="ProcessOnG1041"><path id="ProcessOnPath1042" d="M345.5 380.0L346.5 362.0" stroke="#323232" stroke-width="2.0" stroke-dasharray="none" fill="none"/></g><g id="ProcessOnG1043"><path id="ProcessOnPath1044" d="M583.5 380.0L583.5 362.0" stroke="#323232" stroke-width="2.0" stroke-dasharray="none" fill="none"/></g><g id="ProcessOnG1045" transform="matrix(1.0,0.0,0.0,1.0,538.0,182.5)" opacity="1.0"><path id="ProcessOnPath1046" d="M0.0 16.5L16.5 0.0L16.5 10.89L62.0 10.89L62.0 22.110000000000003L16.5 22.110000000000003L16.5 33.0L0.0 16.5Z" stroke="#323232" stroke-width="2.0" stroke-dasharray="none" opacity="1.0" fill="#ffffff"/></g><g id="ProcessOnG1047" transform="matrix(1.0,0.0,0.0,1.0,615.0,170.0)" opacity="1.0"><path id="ProcessOnPath1048" d="M0.0 4.0Q0.0 0.0 4.0 0.0L201.0 0.0Q205.0 0.0 205.0 4.0L205.0 54.0Q205.0 58.0 201.0 58.0L4.0 58.0Q0.0 58.0 0.0 54.0Z" stroke="#323232" stroke-width="2.0" stroke-dasharray="none" opacity="1.0" fill="#ffffff"/><g id="ProcessOnG1049" transform="matrix(1.0,0.0,0.0,1.0,10.0,20.875)"><text id="ProcessOnText1050" fill="#000000" font-weight="normal" font-style="normal" text-decoration="blink" font-family="微软雅黑" text-anchor="middle" font-size="13" x="92.5" y="13.325">现有服务，提供4min的缓存</text></g></g><g id="ProcessOnG1051" transform="matrix(1.0,0.0,0.0,1.0,615.0,258.0)" opacity="1.0"><path id="ProcessOnPath1052" d="M0.0 4.0Q0.0 0.0 4.0 0.0L201.0 0.0Q205.0 0.0 205.0 4.0L205.0 54.0Q205.0 58.0 201.0 58.0L4.0 58.0Q0.0 58.0 0.0 54.0Z" stroke="#323232" stroke-width="2.0" stroke-dasharray="none" opacity="1.0" fill="#ffffff"/><g id="ProcessOnG1053" transform="matrix(1.0,0.0,0.0,1.0,10.0,20.875)"><text id="ProcessOnText1054" fill="#000000" font-weight="normal" font-style="normal" text-decoration="blink" font-family="微软雅黑" text-anchor="middle" font-size="13" x="92.5" y="13.325">双核CPU、4G内存</text></g></g><g id="ProcessOnG1055" transform="matrix(1.0,0.0,0.0,1.0,798.0,324.0)" opacity="1.0"><path id="ProcessOnPath1056" d="M7.260000000000001 0.0L14.74 0.0L14.74 29.0L22.0 29.0L11.0 40.0L0.0 29.0L7.260000000000001 29.0L7.260000000000001 0.0Z" stroke="#323232" stroke-width="2.0" stroke-dasharray="none" opacity="1.0" fill="#ffffff"/></g><g id="ProcessOnG1057" transform="matrix(1.0,0.0,0.0,1.0,564.0,486.0)" opacity="1.0"><path id="ProcessOnPath1058" d="M0.0 0.0L202.0 0.0L202.0 48.0L0.0 48.0Z" stroke="#323232" stroke-width="2.0" stroke-dasharray="none" opacity="1.0" fill="#ffffff"/><g id="ProcessOnG1059" transform="matrix(1.0,0.0,0.0,1.0,10.0,15.875)"><text id="ProcessOnText1060" fill="#000000" font-weight="normal" font-style="normal" text-decoration="blink" font-family="微软雅黑" text-anchor="middle" font-size="13" x="91.0" y="13.325">每台NODE服务启动两个进程</text></g></g><g id="ProcessOnG1061" transform="matrix(1.0,0.0,0.0,1.0,505.0,496.5)" opacity="1.0"><path id="ProcessOnPath1062" d="M0.0 11.5L11.5 0.0L11.5 7.590000000000001L33.0 7.590000000000001L33.0 15.41L11.5 15.41L11.5 23.0L0.0 11.5Z" stroke="#323232" stroke-width="2.0" stroke-dasharray="none" opacity="1.0" fill="#ffffff"/></g></g></g></svg>